<svg version="1.1" id="Layer_1" xmlns="http://www.w3.org/2000/svg" xmlns:xlink="http://www.w3.org/1999/xlink" x="0px" y="0px"
	 width="100%" viewBox="0 0 256 256" enable-background="new 0 0 256 256" xml:space="preserve">
<path fill="#000000" opacity="1.000000" stroke="none" 
	d="
M168.000000,257.000000 
	C112.000000,257.000000 56.500008,257.000000 1.000007,257.000000 
	C1.000005,171.666672 1.000005,86.333351 1.000003,1.000019 
	C86.333321,1.000013 171.666641,1.000013 257.000000,1.000006 
	C257.000000,86.333313 257.000000,171.666626 257.000000,256.999969 
	C227.500000,257.000000 198.000000,257.000000 168.000000,257.000000 
M123.239662,64.549591 
	C120.167480,65.067322 117.095306,65.585052 113.254517,66.111046 
	C109.512589,67.480011 105.770668,68.848976 101.338554,70.321472 
	C87.693741,77.073151 77.024651,86.789505 70.341545,101.448532 
	C68.936714,105.639954 67.531876,109.831375 65.780350,114.709129 
	C65.413132,118.161606 65.045906,121.614075 64.446602,125.937584 
	C64.654297,129.959579 64.861992,133.981583 64.987724,138.824097 
	C65.985886,142.551468 66.984047,146.278839 67.996124,150.760620 
	C70.291061,155.259293 72.585999,159.757950 75.056152,164.905106 
	C77.420006,167.777878 79.783859,170.650650 82.514885,174.106461 
	C85.927246,176.907288 89.339615,179.708099 93.175690,183.011246 
	C100.909531,188.585617 109.504295,191.908875 119.793335,193.125732 
	C124.857643,193.143906 129.921951,193.162079 135.860260,193.335464 
	C155.110550,191.068436 170.575821,182.242493 181.909683,166.474472 
	C188.645645,157.103149 192.666107,146.695236 193.013626,134.100235 
	C192.965515,129.065903 192.917404,124.031570 192.956879,118.175331 
	C191.131256,108.301704 187.094284,99.373718 181.169052,90.563255 
	C178.239929,87.417252 175.310791,84.271255 172.063995,80.585526 
	C168.386368,78.025650 164.708740,75.465767 160.616913,72.366966 
	C156.775757,70.780655 152.934586,69.194344 148.570389,67.185165 
	C144.058548,66.397629 139.546707,65.610085 134.282730,64.530830 
	C130.863495,64.595436 127.444252,64.660049 123.239662,64.549591 
z"/>
<path fill="#0974EA" opacity="1.000000" stroke="none" 
	d="
M192.943359,135.016907 
	C192.666107,146.695236 188.645645,157.103149 181.909683,166.474472 
	C170.575821,182.242493 155.110550,191.068436 135.543457,192.932983 
	C138.891281,189.853760 142.730896,187.379486 146.153122,184.422180 
	C148.119308,182.723099 149.408859,180.241013 151.267426,177.882019 
	C163.567276,171.936340 172.119415,162.746429 178.460602,150.961838 
	C180.760437,149.277466 182.971024,147.855377 184.600143,145.938995 
	C187.563431,142.453201 190.181335,138.673798 192.943359,135.016907 
z"/>
<path fill="#2B1AB5" opacity="1.000000" stroke="none" 
	d="
M70.819992,100.953728 
	C77.024651,86.789505 87.693741,77.073151 101.676697,70.666588 
	C101.026466,75.393242 100.038086,79.774788 98.871216,84.433746 
	C93.852562,89.492500 89.012398,94.273827 83.749268,99.051949 
	C79.157524,99.683739 74.988754,100.318733 70.819992,100.953728 
z"/>
<path fill="#1161E0" opacity="1.000000" stroke="none" 
	d="
M181.401657,91.153732 
	C187.094284,99.373718 191.131256,108.301704 192.562134,118.630112 
	C190.311234,121.355103 188.446579,123.618416 186.601761,125.897781 
	C185.227875,127.595276 183.879639,129.313522 182.513519,130.558777 
	C182.755829,120.145760 180.054077,110.921989 175.939026,101.916451 
	C177.966751,98.191818 179.684204,94.672775 181.401657,91.153732 
z"/>
<path fill="#1161E0" opacity="1.000000" stroke="none" 
	d="
M118.996277,192.886124 
	C109.504295,191.908875 100.909531,188.585617 93.183464,182.446289 
	C96.169228,179.797714 99.147224,177.714096 102.478096,175.727570 
	C111.257240,180.581818 120.470749,182.307709 129.887054,183.211792 
	C127.721764,185.094391 125.569542,186.542969 123.612518,188.219421 
	C121.956482,189.638077 120.526375,191.320465 118.996277,192.886124 
z"/>
<path fill="#0E6AE7" opacity="1.000000" stroke="none" 
	d="
M119.394806,193.005920 
	C120.526375,191.320465 121.956482,189.638077 123.612518,188.219421 
	C125.569542,186.542969 127.721764,185.094391 130.273941,183.087128 
	C137.506668,181.121979 144.254837,179.616684 151.002991,178.111389 
	C149.408859,180.241013 148.119308,182.723099 146.153122,184.422180 
	C142.730896,187.379486 138.891281,189.853760 135.106445,192.855392 
	C129.921951,193.162079 124.857643,193.143906 119.394806,193.005920 
z"/>
<path fill="#0E6AE7" opacity="1.000000" stroke="none" 
	d="
M182.519989,131.022522 
	C183.879639,129.313522 185.227875,127.595276 186.601761,125.897781 
	C188.446579,123.618416 190.311234,121.355103 192.518341,119.041069 
	C192.917404,124.031570 192.965515,129.065903 192.978485,134.558563 
	C190.181335,138.673798 187.563431,142.453201 184.600143,145.938995 
	C182.971024,147.855377 180.760437,149.277466 178.506485,150.598267 
	C179.640625,143.856934 181.080307,137.439728 182.519989,131.022522 
z"/>
<path fill="#2728C1" opacity="1.000000" stroke="none" 
	d="
M70.580765,101.201126 
	C74.988754,100.318733 79.157524,99.683739 83.645187,99.386902 
	C81.859100,104.146904 79.754112,108.568733 77.225861,112.992020 
	C73.244080,113.336578 69.685562,113.679688 66.127037,114.022797 
	C67.531876,109.831375 68.936714,105.639954 70.580765,101.201126 
z"/>
<path fill="#2728C1" opacity="1.000000" stroke="none" 
	d="
M99.049706,84.156326 
	C100.038086,79.774788 101.026466,75.393242 102.021790,70.614822 
	C105.770668,68.848976 109.512589,67.480011 113.634590,66.533524 
	C113.673302,70.508301 113.331947,74.060600 112.651138,77.790657 
	C107.891022,80.031052 103.470360,82.093689 99.049706,84.156326 
z"/>
<path fill="#1B48D4" opacity="1.000000" stroke="none" 
	d="
M149.093430,67.608032 
	C152.934586,69.194344 156.775757,70.780655 160.803223,73.056892 
	C160.265564,77.187218 159.541595,80.627625 158.480850,83.997833 
	C154.409775,82.007774 150.675491,80.087914 147.031662,77.769638 
	C147.779236,74.116829 148.436325,70.862434 149.093430,67.608032 
z"/>
<path fill="#1B48D4" opacity="1.000000" stroke="none" 
	d="
M74.880936,164.256622 
	C72.585999,159.757950 70.291061,155.259293 68.423965,150.382553 
	C72.220116,149.671066 75.588417,149.337662 79.172501,149.278564 
	C81.256050,153.035461 83.123825,156.518051 84.613449,160.086121 
	C81.117180,161.533264 77.999054,162.894943 74.880936,164.256622 
z"/>
<path fill="#1850D8" opacity="1.000000" stroke="none" 
	d="
M74.968544,164.580872 
	C77.999054,162.894943 81.117180,161.533264 84.891647,160.274612 
	C88.387207,163.576736 91.226440,166.775833 93.683456,170.063263 
	C89.583405,171.275528 85.865562,172.399475 82.147713,173.523438 
	C79.783859,170.650650 77.420006,167.777878 74.968544,164.580872 
z"/>
<path fill="#213ACD" opacity="1.000000" stroke="none" 
	d="
M148.831909,67.396599 
	C148.436325,70.862434 147.779236,74.116829 146.636261,77.743073 
	C142.434570,77.357765 138.718781,76.600609 135.001266,75.391846 
	C135.011322,71.567680 135.023102,68.195114 135.034866,64.822548 
	C139.546707,65.610085 144.058548,66.397629 148.831909,67.396599 
z"/>
<path fill="#2332C7" opacity="1.000000" stroke="none" 
	d="
M65.069695,138.003586 
	C64.861992,133.981583 64.654297,129.959579 64.969322,125.484848 
	C68.822227,125.024857 72.152412,125.017593 75.522163,125.388222 
	C75.640755,129.515320 75.719772,133.264526 75.402405,137.059326 
	C71.693916,137.404480 68.381805,137.704025 65.069695,138.003586 
z"/>
<path fill="#1559DD" opacity="1.000000" stroke="none" 
	d="
M181.285355,90.858490 
	C179.684204,94.672775 177.966751,98.191818 175.691437,101.707527 
	C173.087723,98.805992 171.041870,95.907784 169.083084,92.630493 
	C170.240662,88.542694 171.311157,84.833977 172.381668,81.125252 
	C175.310791,84.271255 178.239929,87.417252 181.285355,90.858490 
z"/>
<path fill="#1850D8" opacity="1.000000" stroke="none" 
	d="
M172.222839,80.855392 
	C171.311157,84.833977 170.240662,88.542694 168.783112,92.484901 
	C165.203247,89.834930 162.010437,86.951477 158.817627,84.068024 
	C159.541595,80.627625 160.265564,77.187218 161.010315,73.326355 
	C164.708740,75.465767 168.386368,78.025650 172.222839,80.855392 
z"/>
<path fill="#232AB9" opacity="1.000000" stroke="none" 
	d="
M75.482590,125.010323 
	C72.152412,125.017593 68.822227,125.024857 65.085365,125.049332 
	C65.045906,121.614075 65.413132,118.161606 65.953690,114.365967 
	C69.685562,113.679688 73.244080,113.336578 77.201920,113.376801 
	C76.895020,117.510201 76.188805,121.260262 75.482590,125.010323 
z"/>
<path fill="#1E40CF" opacity="1.000000" stroke="none" 
	d="
M65.028709,138.413849 
	C68.381805,137.704025 71.693916,137.404480 75.522385,137.434723 
	C77.011398,141.511093 77.984062,145.257675 78.956726,149.004242 
	C75.588417,149.337662 72.220116,149.671066 68.417007,150.005341 
	C66.984047,146.278839 65.985886,142.551468 65.028709,138.413849 
z"/>
<path fill="#1559DD" opacity="1.000000" stroke="none" 
	d="
M82.331299,173.814941 
	C85.865562,172.399475 89.583405,171.275528 93.994415,170.182007 
	C97.166786,172.018433 99.646004,173.824463 102.125214,175.630478 
	C99.147224,177.714096 96.169228,179.797714 92.971611,182.195129 
	C89.339615,179.708099 85.927246,176.907288 82.331299,173.814941 
z"/>
<path fill="#232AB9" opacity="1.000000" stroke="none" 
	d="
M112.990585,77.612900 
	C113.331947,74.060600 113.673302,70.508301 114.018890,66.529388 
	C117.095306,65.585052 120.167480,65.067322 123.682068,64.985535 
	C124.086395,68.774864 124.048309,72.128250 123.607651,75.611328 
	C119.800255,76.364990 116.395416,76.988945 112.990585,77.612900 
z"/>
<path fill="#2332C7" opacity="1.000000" stroke="none" 
	d="
M124.010223,75.481628 
	C124.048309,72.128250 124.086395,68.774864 124.074745,65.073074 
	C127.444252,64.660049 130.863495,64.595436 134.658798,64.676689 
	C135.023102,68.195114 135.011322,71.567680 134.598694,75.452904 
	C130.801956,75.804253 127.406090,75.642937 124.010223,75.481628 
z"/>
<path fill="#010205" opacity="1.000000" stroke="none" 
	d="
M123.607651,75.611328 
	C127.406090,75.642937 130.801956,75.804253 134.600403,75.904510 
	C138.718781,76.600609 142.434570,77.357765 146.545776,78.141487 
	C150.675491,80.087914 154.409775,82.007774 158.480850,83.997833 
	C162.010437,86.951477 165.203247,89.834930 168.696045,92.863983 
	C171.041870,95.907784 173.087723,98.805992 175.381165,101.913116 
	C180.054077,110.921989 182.755829,120.145760 182.513519,130.558777 
	C181.080307,137.439728 179.640625,143.856934 178.155060,150.637695 
	C172.119415,162.746429 163.567276,171.936340 151.267426,177.882019 
	C144.254837,179.616684 137.506668,181.121979 130.371628,182.751923 
	C120.470749,182.307709 111.257240,180.581818 102.478088,175.727570 
	C99.646004,173.824463 97.166786,172.018433 94.376617,170.093689 
	C91.226440,166.775833 88.387207,163.576736 85.269791,160.189133 
	C83.123825,156.518051 81.256050,153.035461 79.172501,149.278564 
	C77.984062,145.257675 77.011398,141.511093 75.918762,137.389114 
	C75.719772,133.264526 75.640755,129.515320 75.522156,125.388222 
	C76.188805,121.260262 76.895020,117.510201 77.625175,113.375351 
	C79.754112,108.568733 81.859100,104.146904 84.068161,99.390106 
	C89.012398,94.273827 93.852562,89.492500 98.871216,84.433746 
	C103.470360,82.093689 107.891022,80.031052 112.651138,77.790657 
	C116.395416,76.988945 119.800255,76.364990 123.607651,75.611328 
M92.762115,116.682945 
	C92.204124,119.455994 91.646133,122.229042 90.869720,125.857491 
	C90.918930,127.905525 90.968132,129.953568 90.898643,132.692978 
	C91.108772,133.826797 91.318901,134.960632 91.564850,136.876419 
	C92.286774,139.063553 93.008690,141.250702 93.823273,144.103271 
	C94.818840,145.852295 95.814400,147.601303 96.947273,149.956696 
	C98.089287,151.385376 99.231293,152.814041 100.722847,154.840088 
	C102.807892,156.578384 104.892937,158.316666 107.352654,160.630661 
	C110.519814,162.196304 113.686981,163.761963 117.423470,165.866409 
	C120.948151,166.261261 124.472839,166.656128 128.867065,167.268661 
	C151.367294,166.687866 168.525238,149.039108 167.220367,127.159492 
	C166.334106,123.503250 165.447830,119.847000 164.198349,115.593597 
	C162.820343,112.720612 161.442322,109.847626 159.882935,106.324409 
	C157.998566,104.363518 156.114197,102.402618 153.902878,99.922340 
	C152.392334,98.886070 150.881790,97.849800 148.935852,96.280594 
	C147.094467,95.446083 145.253082,94.611572 142.839142,93.286484 
	C140.892807,92.781433 138.946472,92.276390 136.364517,91.404724 
	C134.910309,91.289047 133.456116,91.173363 131.133728,90.834053 
	C128.760620,90.965698 126.387527,91.097343 123.252197,91.145203 
	C120.839508,91.804764 118.426811,92.464317 115.307953,93.211426 
	C104.604492,97.588905 96.842049,104.824570 92.762115,116.682945 
z"/>
<path fill="#1161E0" opacity="1.000000" stroke="none" 
	d="
M160.064301,106.974648 
	C161.442322,109.847626 162.820343,112.720612 164.148392,116.238907 
	C163.434372,118.034477 162.641724,119.130035 162.125626,120.343246 
	C154.958725,137.190735 143.182327,149.827621 127.299095,158.792160 
	C123.726089,160.808777 120.331085,163.140793 116.854141,165.327606 
	C113.686981,163.761963 110.519814,162.196304 107.310226,160.021545 
	C108.629776,158.578613 109.893921,157.459763 111.368401,156.953735 
	C133.858185,149.235321 148.997910,134.170715 156.969635,111.785538 
	C157.592545,110.036385 159.013992,108.571594 160.064301,106.974648 
z"/>
<path fill="#1850D8" opacity="1.000000" stroke="none" 
	d="
M100.373306,154.242737 
	C99.231293,152.814041 98.089287,151.385376 97.111038,149.350708 
	C98.890610,147.986069 100.433357,146.924759 102.133247,146.514404 
	C125.891472,140.779037 140.379059,125.833244 146.475372,102.351646 
	C146.985321,100.387390 148.384964,98.654114 149.371246,96.813522 
	C150.881790,97.849800 152.392334,98.886070 153.907166,100.560120 
	C153.323639,102.929245 152.631653,104.632980 152.164261,106.396240 
	C147.885239,122.539223 139.050522,135.610046 124.608505,144.006149 
	C117.088158,148.378235 108.486526,150.890427 100.373306,154.242737 
z"/>
<path fill="#1559DD" opacity="1.000000" stroke="none" 
	d="
M100.548080,154.541412 
	C108.486526,150.890427 117.088158,148.378235 124.608505,144.006149 
	C139.050522,135.610046 147.885239,122.539223 152.164261,106.396240 
	C152.631653,104.632980 153.323639,102.929245 154.070648,100.819809 
	C156.114197,102.402618 157.998566,104.363518 159.973618,106.649529 
	C159.013992,108.571594 157.592545,110.036385 156.969635,111.785538 
	C148.997910,134.170715 133.858185,149.235321 111.368401,156.953735 
	C109.893921,157.459763 108.629776,158.578613 107.122894,159.733688 
	C104.892937,158.316666 102.807892,156.578384 100.548080,154.541412 
z"/>
<path fill="#1B48D4" opacity="1.000000" stroke="none" 
	d="
M149.153549,96.547058 
	C148.384964,98.654114 146.985321,100.387390 146.475372,102.351646 
	C140.379059,125.833244 125.891472,140.779037 102.133247,146.514404 
	C100.433357,146.924759 98.890610,147.986069 97.042381,149.047516 
	C95.814400,147.601303 94.818840,145.852295 94.079926,143.510941 
	C96.511505,142.196777 98.641342,141.265991 100.868347,140.785614 
	C121.865868,136.256424 137.294937,120.203857 141.058197,99.052856 
	C141.385559,97.212921 142.606049,95.531898 143.411697,93.777061 
	C145.253082,94.611572 147.094467,95.446083 149.153549,96.547058 
z"/>
<path fill="#0974EA" opacity="1.000000" stroke="none" 
	d="
M167.045303,127.998306 
	C168.525238,149.039108 151.367294,166.687866 128.525665,166.825378 
	C129.557800,165.032791 130.728729,163.341766 132.336945,162.388351 
	C144.989517,154.887695 154.998840,144.832962 162.500824,132.179749 
	C163.506256,130.483917 165.505997,129.377609 167.045303,127.998306 
z"/>
<path fill="#2332C7" opacity="1.000000" stroke="none" 
	d="
M91.017342,132.001602 
	C90.968132,129.953568 90.918930,127.905525 91.359940,125.340500 
	C93.142281,124.556953 94.425766,124.234894 95.727821,124.032234 
	C112.809029,121.373573 123.889771,108.532410 124.014427,91.228989 
	C126.387527,91.097343 128.760620,90.965698 131.525543,91.344803 
	C131.619904,93.486351 131.325699,95.117737 131.024475,96.747833 
	C128.985535,107.782005 123.933990,116.924065 114.644516,123.589783 
	C107.540123,128.687592 99.524025,130.971985 91.017342,132.001602 
z"/>
<path fill="#1E40CF" opacity="1.000000" stroke="none" 
	d="
M143.125427,93.531769 
	C142.606049,95.531898 141.385559,97.212921 141.058197,99.052856 
	C137.294937,120.203857 121.865868,136.256424 100.868347,140.785614 
	C98.641342,141.265991 96.511505,142.196777 94.033600,143.178223 
	C93.008690,141.250702 92.286774,139.063553 92.029251,136.469894 
	C106.472534,136.258316 117.156944,129.866684 126.079521,119.609940 
	C133.068207,111.576233 135.363129,101.834648 137.000137,91.771339 
	C138.946472,92.276390 140.892807,92.781433 143.125427,93.531769 
z"/>
<path fill="#0E6AE7" opacity="1.000000" stroke="none" 
	d="
M167.132843,127.578896 
	C165.505997,129.377609 163.506256,130.483917 162.500824,132.179749 
	C154.998840,144.832962 144.989517,154.887695 132.336945,162.388351 
	C130.728729,163.341766 129.557800,165.032791 128.090897,166.716537 
	C124.472839,166.656128 120.948151,166.261261 117.138809,165.597015 
	C120.331085,163.140793 123.726089,160.808777 127.299095,158.792160 
	C143.182327,149.827621 154.958725,137.190735 162.125626,120.343246 
	C162.641724,119.130035 163.434372,118.034477 164.330002,116.537491 
	C165.447830,119.847000 166.334106,123.503250 167.132843,127.578896 
z"/>
<path fill="#2728C1" opacity="1.000000" stroke="none" 
	d="
M123.633316,91.187096 
	C123.889771,108.532410 112.809029,121.373573 95.727821,124.032234 
	C94.425766,124.234894 93.142281,124.556953 91.469154,124.912796 
	C91.646133,122.229042 92.204124,119.455994 93.348480,116.341904 
	C106.079979,114.645897 115.273888,105.119820 116.014122,93.123878 
	C118.426811,92.464317 120.839508,91.804764 123.633316,91.187096 
z"/>
<path fill="#213ACD" opacity="1.000000" stroke="none" 
	d="
M136.682327,91.588028 
	C135.363129,101.834648 133.068207,111.576233 126.079521,119.609940 
	C117.156944,129.866684 106.472534,136.258316 92.011337,136.078918 
	C91.318901,134.960632 91.108772,133.826797 90.957993,132.347290 
	C99.524025,130.971985 107.540123,128.687592 114.644516,123.589783 
	C123.933990,116.924065 128.985535,107.782005 131.024475,96.747833 
	C131.325699,95.117737 131.619904,93.486351 131.959625,91.456619 
	C133.456116,91.173363 134.910309,91.289047 136.682327,91.588028 
z"/>
<path fill="#2B1AB5" opacity="1.000000" stroke="none" 
	d="
M115.661041,93.167648 
	C115.273888,105.119820 106.079979,114.645897 93.541306,116.007339 
	C96.842049,104.824570 104.604492,97.588905 115.661041,93.167648 
z"/>
</svg>